<svg width="45" height="45" viewBox="0 0 45 45" fill="none" xmlns="http://www.w3.org/2000/svg">
<circle cx="22.5" cy="22.5" r="21.5" stroke="url(#paint0_linear_1_521)" stroke-width="2"/>
<path d="M29.0625 21.5625H17.9438L21.3469 17.475C21.506 17.2835 21.5826 17.0367 21.5597 16.7888C21.5369 16.5409 21.4165 16.3122 21.225 16.1531C21.0335 15.9939 20.7867 15.9174 20.5388 15.9402C20.2909 15.9631 20.0623 16.0835 19.9031 16.275L15.2156 21.9C15.1841 21.9447 15.1559 21.9917 15.1312 22.0406C15.1312 22.0875 15.1313 22.1156 15.0656 22.1625C15.0231 22.2699 15.0009 22.3844 15 22.5C15.0009 22.6155 15.0231 22.73 15.0656 22.8375C15.0656 22.8843 15.0656 22.9125 15.1312 22.9593C15.1559 23.0082 15.1841 23.0552 15.2156 23.1L19.9031 28.725C19.9913 28.8308 20.1017 28.9159 20.2264 28.9742C20.3512 29.0326 20.4873 29.0627 20.625 29.0625C20.844 29.0629 21.0563 28.9866 21.225 28.8468C21.3199 28.7681 21.3984 28.6715 21.4559 28.5624C21.5134 28.4533 21.5489 28.334 21.5602 28.2112C21.5715 28.0884 21.5585 27.9646 21.5219 27.8468C21.4853 27.7291 21.4258 27.6197 21.3469 27.525L17.9438 23.4375H29.0625C29.3111 23.4375 29.5496 23.3387 29.7254 23.1629C29.9012 22.9871 30 22.7486 30 22.5C30 22.2513 29.9012 22.0129 29.7254 21.837C29.5496 21.6612 29.3111 21.5625 29.0625 21.5625Z" fill="url(#paint1_linear_1_521)"/>
<defs>
<linearGradient id="paint0_linear_1_521" x1="45" y1="0" x2="0" y2="45" gradientUnits="userSpaceOnUse">
<stop stop-color="#00A1F1"/>
<stop offset="1" stop-color="#004589"/>
</linearGradient>
<linearGradient id="paint1_linear_1_521" x1="30" y1="15.9363" x2="16.9898" y2="30.8037" gradientUnits="userSpaceOnUse">
<stop stop-color="#00A1F1"/>
<stop offset="1" stop-color="#004589"/>
</linearGradient>
</defs>
</svg>
