<svg width="133" height="133" viewBox="0 0 133 133" fill="none" xmlns="http://www.w3.org/2000/svg">
<g filter="url(#filter0_d_1_517)">
<circle cx="66.5" cy="52.5" r="22.5" fill="url(#paint0_linear_1_517)"/>
<circle cx="66.5" cy="52.5" r="21.5" stroke="url(#paint1_linear_1_517)" stroke-width="2"/>
</g>
<path d="M59.9375 51.5625H71.0562L67.6531 47.475C67.494 47.2835 67.4174 47.0367 67.4403 46.7888C67.4631 46.5409 67.5835 46.3122 67.775 46.1531C67.9665 45.9939 68.2133 45.9174 68.4612 45.9402C68.7091 45.9631 68.9377 46.0835 69.0969 46.275L73.7844 51.9C73.8159 51.9447 73.8441 51.9917 73.8688 52.0406C73.8688 52.0875 73.8687 52.1156 73.9344 52.1625C73.9769 52.2699 73.9991 52.3844 74 52.5C73.9991 52.6155 73.9769 52.73 73.9344 52.8375C73.9344 52.8843 73.9344 52.9125 73.8688 52.9593C73.8441 53.0082 73.8159 53.0552 73.7844 53.1L69.0969 58.725C69.0087 58.8308 68.8983 58.9159 68.7736 58.9742C68.6488 59.0326 68.5127 59.0627 68.375 59.0625C68.156 59.0629 67.9437 58.9866 67.775 58.8468C67.6801 58.7681 67.6016 58.6715 67.5441 58.5624C67.4866 58.4533 67.4511 58.334 67.4398 58.2112C67.4285 58.0884 67.4415 57.9646 67.4781 57.8468C67.5147 57.7291 67.5742 57.6197 67.6531 57.525L71.0562 53.4375H59.9375C59.6889 53.4375 59.4504 53.3387 59.2746 53.1629C59.0988 52.9871 59 52.7486 59 52.5C59 52.2513 59.0988 52.0129 59.2746 51.837C59.4504 51.6612 59.6889 51.5625 59.9375 51.5625Z" fill="white"/>
<defs>
<filter id="filter0_d_1_517" x="0" y="0" width="133" height="133" filterUnits="userSpaceOnUse" color-interpolation-filters="sRGB">
<feFlood flood-opacity="0" result="BackgroundImageFix"/>
<feColorMatrix in="SourceAlpha" type="matrix" values="0 0 0 0 0 0 0 0 0 0 0 0 0 0 0 0 0 0 127 0" result="hardAlpha"/>
<feOffset dy="14"/>
<feGaussianBlur stdDeviation="22"/>
<feColorMatrix type="matrix" values="0 0 0 0 0.0561111 0 0 0 0 0.0777333 0 0 0 0 0.133333 0 0 0 0.08 0"/>
<feBlend mode="normal" in2="BackgroundImageFix" result="effect1_dropShadow_1_517"/>
<feBlend mode="normal" in="SourceGraphic" in2="effect1_dropShadow_1_517" result="shape"/>
</filter>
<linearGradient id="paint0_linear_1_517" x1="89" y1="30" x2="44" y2="75" gradientUnits="userSpaceOnUse">
<stop stop-color="#00A1F1"/>
<stop offset="1" stop-color="#004589"/>
</linearGradient>
<linearGradient id="paint1_linear_1_517" x1="89" y1="30" x2="44" y2="75" gradientUnits="userSpaceOnUse">
<stop stop-color="#00A1F1"/>
<stop offset="1" stop-color="#004589"/>
</linearGradient>
</defs>
</svg>
