<svg width="167" height="94" viewBox="0 0 167 94" fill="none" xmlns="http://www.w3.org/2000/svg">
<path fill-rule="evenodd" clip-rule="evenodd" d="M62.117 49.4621C61.127 48.9921 62.117 47.7861 62.587 47.4191C63.577 46.6861 64.883 46.4241 66.083 46.5191L65.979 48.6671C65.927 49.7671 65.666 49.2971 64.883 49.8721C64.048 50.4481 62.223 51.2861 62.118 49.4521L62.117 49.4621ZM99.11 72.3001C100.52 73.2001 103.127 75.8621 100.988 77.1701C98.953 79.0561 97.805 75.0751 95.978 74.5501C96.761 73.5021 97.752 72.5071 99.108 72.2981L99.11 72.3001ZM73.65 75.3381C71.98 75.6001 71.04 77.1181 69.633 77.9051C68.329 78.6911 67.807 77.6431 67.703 77.4351C67.493 77.3301 67.493 77.5401 67.181 77.2351C65.981 75.2971 68.433 73.8831 69.738 72.9401C71.564 72.5201 72.712 74.0921 73.651 75.3401L73.65 75.3381ZM106.99 49.2001C106.886 51.0331 105.06 50.1951 104.225 49.6201C103.442 49.0441 103.182 49.5151 103.129 48.4151L103.025 46.2671C104.225 46.1621 105.529 46.4241 106.521 47.1671C107.043 47.5871 107.981 48.7371 106.991 49.2101L106.99 49.2001Z" fill="#F6D2A2"/>
<path d="M63.11 50.7702C62.745 50.7702 62.067 50.6132 61.962 49.5652C61.649 49.3652 61.545 49.0952 61.545 48.9352C61.493 48.3052 62.171 47.5732 62.535 47.3112C63.37 46.6812 64.465 46.3682 65.613 46.3682H66.291V46.5252C66.343 47.1012 66.291 47.6772 66.239 48.2012C66.239 48.3582 66.239 48.5152 66.187 48.6712C66.135 49.4572 65.977 49.5712 65.613 49.7192C65.456 49.7712 65.3 49.8242 65.039 50.0332C64.779 50.1902 63.891 50.7662 63.109 50.7662L63.11 50.7702ZM65.614 46.6842C64.518 46.6842 63.527 46.9982 62.744 47.5842C62.379 47.8462 61.857 48.4842 61.909 48.8842C61.909 49.0412 62.013 49.1982 62.222 49.3042L62.326 49.3562V49.4612C62.378 50.2992 62.796 50.4042 63.109 50.4042C63.631 50.4042 64.361 50.0372 64.831 49.7242C65.144 49.5242 65.353 49.4622 65.509 49.4102C65.769 49.3052 65.822 49.3052 65.874 48.6772C65.874 48.5202 65.874 48.3632 65.926 48.2072C65.978 47.7372 65.978 47.2122 65.978 46.7402C65.821 46.6882 65.718 46.6882 65.613 46.6882L65.614 46.6842Z" fill="black"/>
<path fill-rule="evenodd" clip-rule="evenodd" d="M62.117 49.462C62.377 49.357 62.691 49.305 62.847 49.042L62.117 49.462Z" fill="#C6B198"/>
<path d="M62.117 49.62C62.065 49.62 61.96 49.568 61.96 49.515C61.908 49.41 61.96 49.315 62.064 49.315C62.116 49.315 62.168 49.263 62.168 49.263C62.378 49.158 62.585 49.106 62.69 48.949C62.742 48.897 62.847 48.844 62.95 48.897C63.002 48.949 63.054 49.054 63.002 49.159C62.8298 49.3712 62.5908 49.5189 62.324 49.578L62.22 49.63H62.116L62.117 49.62Z" fill="black"/>
<path fill-rule="evenodd" clip-rule="evenodd" d="M66.396 27.305C59.3 25.305 64.57 16.253 70.256 19.972L66.396 27.305Z" fill="#6AD7E5"/>
<path d="M66.5 27.5141L66.343 27.4621C62.691 26.4141 62.743 23.7951 62.847 23.0101C63.107 21.0101 64.987 18.9241 67.49 18.9241C68.48 18.9241 69.42 19.2381 70.36 19.8671L70.517 19.9721L66.5 27.5141ZM67.49 19.2901C65.142 19.2901 63.42 21.2281 63.16 23.0601C62.9 24.9461 64.047 26.4121 66.29 27.0931L69.994 20.0231C69.211 19.5531 68.377 19.2901 67.49 19.2901Z" fill="black"/>
<path fill-rule="evenodd" clip-rule="evenodd" d="M97.857 19.3C103.44 15.37 108.553 24.276 102.031 26.53L97.857 19.3Z" fill="#6AD7E5"/>
<path d="M101.978 26.7301L97.648 19.2301L97.805 19.1251C98.805 18.4451 99.788 18.0771 100.779 18.0771C103.179 18.0771 104.901 20.0771 105.266 22.0071C105.423 22.7931 105.579 25.4641 102.136 26.6071L101.979 26.7121L101.978 26.7301ZM98.118 19.3971L102.135 26.3641C104.17 25.6311 105.213 24.0591 104.9 22.1641C104.587 20.3841 102.97 18.5501 100.778 18.5501C99.891 18.4981 99.004 18.7501 98.118 19.3881V19.3971ZM99.9 77.8521C99.065 77.8521 98.335 77.0141 97.7 76.2281C97.126 75.5981 96.552 74.9282 95.926 74.7081L95.666 74.6561L95.823 74.4562C96.449 73.5561 97.493 72.4132 99.058 72.1511H99.11L99.162 72.2032C100.049 72.7792 101.979 74.4031 101.927 75.9231C101.927 76.4991 101.614 76.9711 101.04 77.3371C100.675 77.7041 100.31 77.8611 99.892 77.8611L99.9 77.8521ZM96.248 74.4471C96.874 74.7091 97.396 75.3902 97.918 75.9672C98.544 76.7532 99.17 77.4341 99.848 77.4341C100.161 77.4341 100.474 77.2771 100.788 76.9641H100.84C101.31 76.6501 101.57 76.2841 101.57 75.8121C101.57 74.6071 100.057 73.0881 99.013 72.4071C98.073 72.6691 97.135 73.3071 96.248 74.4501V74.4471ZM100.996 77.3272C100.944 77.3272 100.892 77.2752 100.839 77.2221C100.727 77.0058 100.64 76.7778 100.579 76.5421C100.422 76.1222 100.266 75.7041 99.953 75.3901C99.901 75.3382 99.901 75.2331 99.953 75.1281C100.005 75.0761 100.11 75.0761 100.213 75.1281C100.578 75.4951 100.787 75.9661 100.943 76.4282L101.203 77.0581C101.255 77.1631 101.203 77.2581 101.151 77.3201H100.994L100.996 77.3272Z" fill="black"/>
<path d="M68.743 78.3241C68.065 78.3241 67.7 77.7481 67.595 77.5381H67.543C67.386 77.5381 67.283 77.4861 67.073 77.2761V77.2241C65.925 75.3911 67.908 73.9761 69.213 73.0241L69.683 72.7101H69.787C69.987 72.6581 70.152 72.6581 70.361 72.6581C71.926 72.6581 72.918 74.0201 73.761 75.1201L74.021 75.4871L73.708 75.5391C72.708 75.6961 71.986 76.3251 71.256 76.9531C70.786 77.3731 70.316 77.7391 69.796 78.0531C69.379 78.2101 69.066 78.3151 68.753 78.3151L68.743 78.3241ZM67.595 77.2241C67.647 77.2241 67.699 77.2241 67.795 77.2761H67.847L67.899 77.3281C68.003 77.4851 68.264 77.9581 68.786 77.9581C69.046 77.9581 69.308 77.8531 69.569 77.6961C70.091 77.4341 70.569 77.0161 70.969 76.6481C71.647 76.0721 72.369 75.4431 73.317 75.1811C72.534 74.1331 71.595 72.9811 70.291 72.9811C70.134 72.9811 69.978 72.9811 69.821 73.0331L69.404 73.3471C68.047 74.2901 66.378 75.4951 67.369 77.0671C67.421 77.1721 67.473 77.2241 67.569 77.2241H67.595ZM67.699 77.5911C67.595 77.5911 67.499 77.4861 67.542 77.3911C67.594 76.8671 67.855 76.4911 68.116 76.0911C68.2569 75.8933 68.3791 75.6827 68.481 75.4621C68.533 75.3571 68.638 75.3571 68.681 75.3571C68.785 75.4091 68.785 75.5141 68.785 75.5571C68.681 75.8191 68.525 76.0271 68.368 76.2371C68.108 76.6041 67.898 76.9171 67.846 77.3371C67.846 77.5371 67.794 77.5991 67.689 77.5991L67.699 77.5911ZM66.709 24.8431C65.769 24.3731 65.092 23.6911 65.666 22.5911C66.188 21.5961 67.179 21.6911 68.118 22.1711L66.718 24.8411L66.709 24.8431ZM100.569 23.9001C101.509 23.4301 102.186 22.7481 101.612 21.6481C101.09 20.6531 100.099 20.7481 99.16 21.2281L100.56 23.8981L100.569 23.9001ZM106.047 50.5001C105.264 50.5001 104.377 49.9241 104.117 49.7671C103.857 49.6101 103.7 49.5051 103.543 49.4531C103.126 49.2961 103.021 49.1911 102.969 48.4051C102.969 48.2481 102.969 48.0911 102.917 47.9351C102.865 47.4111 102.813 46.8351 102.865 46.2591V46.0991H103.543C104.691 46.0991 105.786 46.4131 106.621 47.0421C106.986 47.3041 107.664 48.0371 107.621 48.6661C107.621 48.8661 107.517 49.1361 107.204 49.2961C107.1 50.3441 106.421 50.5011 106.056 50.5011L106.047 50.5001ZM103.177 46.4671L103.229 47.9341C103.229 48.0911 103.229 48.2481 103.281 48.4041C103.333 49.0341 103.385 49.0341 103.646 49.1371C103.803 49.1891 104.011 49.2941 104.324 49.4511C104.794 49.7651 105.524 50.1311 106.046 50.1311C106.359 50.1311 106.776 50.0261 106.829 49.1881V49.0831L106.933 49.0311C107.133 48.9261 107.246 48.8311 107.246 48.6111C107.298 48.1911 106.776 47.5631 106.411 47.3111C105.628 46.7351 104.585 46.4111 103.541 46.4111C103.437 46.4631 103.341 46.4631 103.176 46.4631L103.177 46.4671Z" fill="black"/>
<path fill-rule="evenodd" clip-rule="evenodd" d="M106.987 49.2C106.727 49.095 106.413 49.043 106.257 48.78L106.987 49.2Z" fill="#C6B198"/>
<path d="M106.987 49.4H106.935L106.831 49.348C106.571 49.243 106.309 49.191 106.153 48.928C106.101 48.876 106.101 48.728 106.205 48.666C106.257 48.614 106.415 48.614 106.465 48.718C106.569 48.875 106.778 48.918 106.987 49.032C107.039 49.032 107.091 49.084 107.091 49.084C107.195 49.136 107.248 49.241 107.195 49.284C107.142 49.327 107.038 49.389 106.985 49.389L106.987 49.4Z" fill="black"/>
<path fill-rule="evenodd" clip-rule="evenodd" d="M83.874 15.5701C90.97 15.5701 97.596 16.5651 101.091 23.4271C104.221 31.0751 103.074 39.3511 103.595 47.4701C104.012 54.4371 104.899 62.4501 101.717 68.8941C98.327 75.6511 89.874 77.3801 82.934 77.1181C77.456 76.9181 70.882 75.1181 67.751 70.0981C64.151 64.2311 65.821 55.4841 66.081 48.9361C66.394 41.1841 63.994 33.3791 66.551 25.8361C69.108 17.9361 76.203 16.1361 83.873 15.5691" fill="#6AD7E5"/>
<path d="M84.135 77.3301H82.83C80.69 77.2781 77.456 76.9101 74.273 75.6001C71.195 74.3431 68.951 72.5621 67.49 70.2051C64.568 65.4381 65.09 58.8911 65.56 53.0751L65.82 48.9371C65.924 46.2131 65.716 43.3851 65.455 40.7131C65.038 35.7891 64.62 30.7081 66.238 25.7831C67.49 22.1161 69.734 19.4971 73.125 17.8211C75.785 16.5211 79.073 15.7781 83.768 15.4211C90.758 15.3691 97.698 16.3641 101.194 23.3211C103.49 28.9261 103.49 34.9511 103.542 40.7641C103.542 42.9641 103.542 45.2161 103.699 47.4161C103.751 48.0961 103.803 48.7781 103.803 49.4591C104.22 55.8591 104.69 63.0791 101.768 68.9451C100.308 71.9311 97.751 74.1311 94.255 75.5451C91.438 76.6971 87.89 77.3251 84.133 77.3251L84.135 77.3301ZM83.875 15.7301C76.518 16.3061 69.318 17.9301 66.658 25.8921C65.041 30.7621 65.458 35.7921 65.875 40.6621C66.085 43.3861 66.345 46.1621 66.24 48.9381C66.188 50.2381 66.083 51.6081 65.98 53.0761C65.51 58.8381 64.99 65.3331 67.858 69.9961C69.058 71.9341 72.918 76.5441 82.884 76.9101H84.188C95.718 76.9101 99.998 71.7771 101.562 68.7401C104.432 62.9781 103.962 55.7401 103.597 49.4101C103.545 48.7301 103.493 48.0481 103.493 47.3671C103.389 45.1671 103.336 42.9151 103.336 40.7151C103.284 34.9531 103.284 28.9291 101.04 23.3771C99.475 20.2771 97.127 18.1911 93.892 16.9771C90.552 15.8771 86.796 15.7201 83.875 15.7201V15.7301Z" fill="black"/>
<path fill-rule="evenodd" clip-rule="evenodd" d="M85.126 25.1051C84.709 18.2431 95.196 16.3571 96.761 23.0621C98.483 30.5621 86.378 32.5421 85.126 25.1051ZM70.674 26.3001C69.057 18.3381 81.787 16.8701 82.257 24.6241C82.622 31.1191 72.344 32.7441 70.674 26.3001Z" fill="white"/>
<path d="M90.865 29.9761C88.517 29.9761 85.543 28.7191 84.917 25.1561C84.813 23.4801 85.334 21.9611 86.43 20.8081C87.63 19.5081 89.456 18.7651 91.334 18.7651C93.534 18.7651 96.134 19.9171 96.864 23.1131C97.281 24.8931 96.968 26.4651 95.977 27.7131C94.881 29.0751 92.951 29.9651 90.864 29.9651L90.865 29.9761ZM85.282 25.1061C85.542 26.5731 86.222 27.7261 87.317 28.5631C88.257 29.2961 89.56 29.6631 90.865 29.6631C92.795 29.6631 94.665 28.8251 95.717 27.5151C96.657 26.3631 96.917 24.8451 96.552 23.1671C95.874 20.1811 93.422 19.1341 91.335 19.1341C89.561 19.1341 87.839 19.8671 86.692 21.0721C85.692 22.1201 85.179 23.5341 85.292 25.1051L85.282 25.1061ZM89.822 24.7921C89.822 25.8401 89.039 26.6781 88.1 26.6781C87.161 26.6781 86.378 25.8401 86.378 24.7921C86.378 23.7441 87.161 22.9061 88.1 22.9061C89.039 22.9061 89.822 23.7441 89.822 24.7921ZM76.152 30.6051C73.909 30.6051 71.3 29.5051 70.465 26.3621C70.1 24.5291 70.465 22.8621 71.508 21.5951C72.656 20.1811 74.534 19.3431 76.568 19.3431C79.281 19.3431 82.151 20.9671 82.368 24.6431C82.472 26.1631 82.003 27.5231 80.968 28.6231C79.872 29.8281 78.046 30.6231 76.168 30.6231L76.152 30.6051ZM76.57 19.7001C74.64 19.7001 72.866 20.4861 71.77 21.7951C70.77 23.0001 70.466 24.5191 70.83 26.2471C71.56 29.1801 74.065 30.2271 76.152 30.2271C77.926 30.2271 79.648 29.5471 80.752 28.3411C81.2198 27.8483 81.5778 27.262 81.8026 26.6209C82.0273 25.9797 82.1137 25.2981 82.056 24.6211C81.952 22.3691 80.439 19.6971 76.578 19.6971L76.57 19.7001ZM75.266 25.2521C75.266 26.3001 74.483 27.1381 73.544 27.1381C72.605 27.1381 71.822 26.3001 71.822 25.2521C71.822 24.2041 72.605 23.3661 73.544 23.3661C74.483 23.3661 75.266 24.2041 75.266 25.2521Z" fill="black"/>
<path fill-rule="evenodd" clip-rule="evenodd" d="M86.587 34.0001C86.587 34.9431 86.797 36.0431 86.639 37.1001C86.379 37.5701 85.909 37.6241 85.491 37.7801C84.917 37.6751 84.448 37.3101 84.187 36.7851C84.03 35.6331 84.239 34.4801 84.291 33.3281L86.587 34.0081V34.0001Z" fill="white"/>
<path d="M85.49 38C84.812 37.895 84.29 37.476 84.03 36.9C83.926 36.062 83.978 35.276 84.03 34.5C84.082 34.133 84.082 33.767 84.082 33.4V33.2L86.742 34.0379V34.143C86.742 34.457 86.794 34.773 86.794 35.138C86.846 35.818 86.898 36.552 86.794 37.233V37.285C86.584 37.705 86.22 37.809 85.854 37.965C85.75 37.913 85.644 37.9649 85.489 38.0169L85.49 38ZM84.342 36.743C84.552 37.213 84.968 37.529 85.438 37.643C85.542 37.591 85.648 37.5909 85.698 37.5379C86.011 37.4329 86.272 37.338 86.428 37.068C86.532 36.438 86.48 35.768 86.428 35.068C86.428 34.754 86.376 34.4379 86.376 34.1679L84.393 33.5379C84.393 33.8519 84.341 34.168 84.341 34.438C84.289 35.276 84.237 36.008 84.341 36.743H84.342Z" fill="black"/>
<path fill-rule="evenodd" clip-rule="evenodd" d="M74.7 25.68C74.7 25.942 74.5 26.15 74.283 26.15C74.066 26.15 73.866 25.95 73.866 25.68C73.866 25.41 74.066 25.21 74.283 25.21C74.543 25.21 74.7 25.41 74.7 25.68ZM89.3 25.2C89.3 25.462 89.143 25.67 88.883 25.67C88.683 25.67 88.466 25.47 88.466 25.2C88.466 24.93 88.623 24.73 88.883 24.73C89.083 24.73 89.3 24.93 89.3 25.2ZM81.578 33.905C80.795 35.738 81.995 39.457 84.082 36.735C83.925 35.583 84.134 34.43 84.186 33.278L81.586 33.908L81.578 33.905Z" fill="white"/>
<path d="M82.674 37.8859C82.309 37.8859 81.944 37.6859 81.684 37.2559C81.11 36.4179 81.006 34.8559 81.424 33.8509L81.476 33.7459L84.346 33.0129V33.2129L84.294 34.3649C84.242 35.1509 84.19 35.8849 84.294 36.6699V36.7219L84.242 36.7739C83.72 37.5069 83.199 37.8739 82.677 37.8739L82.674 37.8859ZM81.734 34.0619C81.421 34.9619 81.524 36.3669 81.994 37.0479C82.204 37.3619 82.411 37.5179 82.672 37.5179C83.037 37.5179 83.455 37.2039 83.872 36.6799C83.768 35.8939 83.82 35.1099 83.924 34.3749L83.976 33.4749L81.733 34.0509L81.734 34.0619Z" fill="black"/>
<path fill-rule="evenodd" clip-rule="evenodd" d="M81.84 30.3431C80.43 30.4481 79.283 32.1761 80.014 33.4861C81.004 35.2661 83.144 33.3291 84.501 33.4861C86.066 33.5381 87.318 35.1621 88.571 33.8001C89.981 32.2801 87.945 30.8141 86.431 30.1331L81.841 30.3331L81.84 30.3431Z" fill="#F6D2A2"/>
<path d="M87.474 34.5331C87.004 34.5331 86.534 34.3331 86.064 34.1131C85.594 33.8931 85.074 33.6931 84.499 33.6931H84.342C83.925 33.6931 83.455 33.8501 82.932 34.0601C82.358 34.2601 81.784 34.4271 81.262 34.4271C80.636 34.4271 80.166 34.1651 79.852 33.5891C79.487 32.9591 79.539 32.2271 79.904 31.5461C80.321 30.7601 81.052 30.2891 81.834 30.1841L86.53 29.9841C87.678 30.4541 88.982 31.3461 89.243 32.3841C89.347 32.9081 89.191 33.4321 88.773 33.9041C88.355 34.3761 87.938 34.5341 87.469 34.5341L87.474 34.5331ZM84.552 33.3811C85.126 33.3811 85.7 33.6431 86.222 33.8511C86.692 34.0511 87.109 34.2181 87.526 34.2181C87.891 34.2181 88.204 34.0611 88.516 33.7481C88.6766 33.5951 88.7983 33.4059 88.8708 33.1963C88.9434 32.9866 88.9647 32.7627 88.933 32.5431C88.723 31.6431 87.473 30.8131 86.481 30.3951L81.941 30.5951C81.263 30.6471 80.637 31.1191 80.271 31.7471C79.958 32.3231 79.958 32.9521 80.219 33.4771C80.479 33.9471 80.793 34.1571 81.315 34.1571C81.785 34.1571 82.305 33.9571 82.828 33.7901C83.402 33.5901 83.871 33.4231 84.393 33.4231C84.393 33.3181 84.445 33.3181 84.55 33.3711L84.552 33.3811Z" fill="#231F20"/>
<path d="M81.683 30.3001C81.579 27.8381 86.273 27.5241 86.796 29.5671C87.37 31.6621 81.892 32.1341 81.683 30.3001Z" fill="black"/>
</svg>
