<svg width="78" height="78" viewBox="0 0 78 78" fill="none" xmlns="http://www.w3.org/2000/svg">
<circle cx="39" cy="39" r="24" fill="white"/>
<circle cx="39" cy="39" r="39" fill="white" fill-opacity="0.43"/>
<g clip-path="url(#clip0_1_416)">
<path d="M35.2052 29.6754C34.9476 29.6627 34.6914 29.7183 34.4622 29.8362H34.0155L34.2339 29.9818C34.0914 30.0924 33.9699 30.2289 33.8763 30.3847C33.7396 30.6121 33.6672 30.8723 33.6667 31.1376V31.1385V46.8613V46.8623C33.6672 47.1275 33.7396 47.3877 33.8763 47.6151L34.3048 47.3575L33.8763 47.6151C34.0129 47.8425 34.2087 48.0285 34.4427 48.1534C34.6767 48.2784 34.9403 48.3375 35.2052 48.3245L35.1807 47.8251L35.2052 48.3245C35.4702 48.3114 35.7267 48.2268 35.9473 48.0796L47.7378 40.2209C47.939 40.087 48.1039 39.9055 48.218 39.6925C48.3322 39.4795 48.3919 39.2416 48.3919 38.9999C48.3919 38.7583 48.3322 38.5203 48.218 38.3073C48.1039 38.0943 47.939 37.9128 47.7378 37.7789L37.3194 30.8362H37.3202L35.9473 29.9202C35.7267 29.773 35.4702 29.6884 35.2052 29.6754ZM39 62.6666C25.9289 62.6666 15.3333 52.071 15.3333 38.9999C15.3333 25.9288 25.9289 15.3333 39 15.3333C52.0711 15.3333 62.6667 25.9288 62.6667 38.9999C62.6667 52.071 52.0711 62.6666 39 62.6666Z" fill="url(#paint0_linear_1_416)" stroke="white"/>
</g>
<defs>
<linearGradient id="paint0_linear_1_416" x1="63.1667" y1="14.8333" x2="14.8333" y2="63.1666" gradientUnits="userSpaceOnUse">
<stop stop-color="#00A1F1"/>
<stop offset="1" stop-color="#004589"/>
</linearGradient>
<clipPath id="clip0_1_416">
<rect width="58" height="58" fill="white" transform="translate(10 10)"/>
</clipPath>
</defs>
</svg>
